# xmcd CD database file
#
# Track frame offsets:
#	150
#	10470
#	23257
#	32267
#	47520
#	61532
#	74420
#	84305
#	95390
#	107147
#	117307
#	129870
#
# Disc length: 1902 seconds
#
# Revision: 3
# Processed by: cddbd v1.4PL0 Copyright (c) Steve Scherf et al.
# Submitted via: CDex 1.40Release
#
DISCID=82076c0c
DTITLE=Carl Perkins - Greatest Hits, Finest Performances
DYEAR=1900
DGENRE=Rock and Roll
TTITLE0=Blue Suede Shoes
TTITLE1=Boppin' The Blues
TTITLE2=Lend Me Your Comb
TTITLE3=Only You
TTITLE4=Tennessee
TTITLE5=Honey Don't
TTITLE6=Matchbox
TTITLE7=Dixie Fried
TTITLE8=Right Strong But the Wrong Yo Yo
TTITLE9=Everybody's Trying To Be My Baby
TTITLE10=Your True Love
TTITLE11=Roll Over Beethoven
EXTD=ID3G: 78
EXTT0=
EXTT1=
EXTT2=
EXTT3=
EXTT4=
EXTT5=
EXTT6=
EXTT7=
EXTT8=
EXTT9=
EXTT10=
EXTT11=
PLAYORDER=
